<svg width="846" height="1228" viewBox="0 0 846 1228" fill="none" xmlns="http://www.w3.org/2000/svg">
<g clip-path="url(#clip0_1_915)">
<path d="M366.149 1228.23C586.083 1228.23 764.375 1072.69 764.375 880.811C764.375 688.936 586.083 533.39 366.149 533.39C146.215 533.39 -32.0762 688.936 -32.0762 880.811C-32.0762 1072.69 146.215 1228.23 366.149 1228.23Z" fill="#F0F0F0"/>
<path d="M594.849 1001.36C568.735 978.578 568.735 941.647 594.849 918.865C620.962 896.084 663.301 896.084 689.415 918.865C715.528 941.647 715.528 978.578 689.415 1001.36C663.301 1024.14 620.962 1024.14 594.849 1001.36Z" fill="#E0E0E0"/>
<path d="M63.724 1004.53L-4.96527 944.61C-8.8358 941.239 -8.8358 935.747 -4.96527 932.376L394.578 583.806C396.75 582.144 399.15 581.277 401.584 581.277C404.019 581.277 406.419 582.144 408.59 583.806L477.296 643.723C481.167 647.094 481.167 652.585 477.296 655.957L77.7526 1004.53C75.5782 1006.19 73.1753 1007.06 70.7383 1007.06C68.3012 1007.06 65.8984 1006.19 63.724 1004.53Z" fill="#E0E0E0"/>
<path d="M310.626 897.718L369.681 846.127C375.766 840.815 378.808 833.868 378.808 826.896C378.808 819.923 378.808 814.483 378.808 814.483L317.556 762.279C315.845 760.607 314.42 758.347 313.398 755.684C312.375 753.021 311.785 750.03 311.674 746.955V636.904L208.572 726.958V836.958C208.691 840.03 209.285 843.016 210.307 845.678C211.328 848.339 212.749 850.601 214.454 852.282L266.58 897.641C278.715 908.343 298.456 908.343 310.626 897.718Z" fill="#FF2CDF"/>
<g opacity="0.6">
<path d="M310.626 897.718L369.681 846.127C375.766 840.815 378.808 833.868 378.808 826.896C378.808 819.923 378.808 814.483 378.808 814.483L317.556 762.279C315.845 760.607 314.42 758.347 313.398 755.684C312.375 753.021 311.785 750.03 311.674 746.955V636.904L208.572 726.958V836.958C208.691 840.03 209.285 843.016 210.307 845.678C211.328 848.339 212.749 850.601 214.454 852.282L266.58 897.641C278.715 908.343 298.456 908.343 310.626 897.718Z" fill="black"/>
</g>
<path opacity="0.3" d="M233.3 856.445V868.807L214.404 852.333C212.699 850.654 211.28 848.392 210.261 845.73C209.242 843.067 208.652 840.08 208.539 837.009V726.958L228.179 709.82C228.585 717.355 229.024 725.144 229.447 732.806L215.638 744.81V830.752C215.747 833.827 216.337 836.819 217.36 839.482C218.382 842.146 219.808 844.406 221.52 846.076L233.3 856.445Z" fill="black"/>
<path d="M215.638 830.778C215.754 833.85 216.347 836.838 217.369 839.5C218.39 842.162 219.812 844.424 221.52 846.102L266.512 885.28C278.682 895.879 298.423 895.905 310.609 885.28L369.766 833.689C381.952 823.065 381.952 805.851 369.766 795.226L324.739 756.048C323.036 754.365 321.618 752.102 320.6 749.441C319.581 746.779 318.99 743.793 318.874 740.724V654.756L215.773 744.81L215.638 830.778Z" fill="#FF2CDF"/>
<path opacity="0.3" d="M215.638 830.778C215.754 833.85 216.347 836.838 217.369 839.5C218.39 842.162 219.812 844.424 221.52 846.102L266.512 885.28C278.682 895.879 298.423 895.905 310.609 885.28L369.766 833.689C381.952 823.065 381.952 805.851 369.766 795.226L324.739 756.048C323.036 754.365 321.618 752.102 320.6 749.441C319.581 746.779 318.99 743.793 318.874 740.724V654.756L215.773 744.81L215.638 830.778Z" fill="black"/>
<path opacity="0.5" d="M336.655 766.545L324.672 756.099C322.968 754.416 321.55 752.153 320.532 749.492C319.513 746.83 318.922 743.844 318.807 740.775V654.756L215.705 744.81V830.778C215.821 833.85 216.414 836.838 217.436 839.5C218.458 842.162 219.88 844.424 221.587 846.102L233.418 856.318L336.655 766.545Z" fill="black"/>
<path d="M378.825 814.509V826.921C378.825 833.894 375.766 840.815 369.698 846.153L310.542 897.718C304.068 902.94 296.837 905.651 289.499 905.61V893.249C296.837 893.29 304.068 890.578 310.542 885.357L369.698 833.74C375.766 828.454 378.825 821.481 378.825 814.509Z" fill="#FF2CDF"/>
<path opacity="0.5" d="M378.825 814.509V826.921C378.825 833.894 375.766 840.815 369.698 846.153L310.542 897.718C304.068 902.94 296.837 905.651 289.499 905.61V893.249C296.837 893.29 304.068 890.578 310.542 885.357L369.698 833.74C375.766 828.454 378.825 821.481 378.825 814.509Z" fill="black"/>
<path d="M49.999 937.611C52.2279 939.238 54.6785 940.051 57.1534 939.984C59.6282 939.918 62.0582 938.974 64.2473 937.228L463.132 589.246C465.271 587.138 467.051 584.298 468.328 580.957C469.606 577.616 470.344 573.867 470.484 570.014V82.4045C470.408 78.6562 469.746 74.9882 468.554 71.6994C467.361 68.4106 465.672 65.5941 463.622 63.4794C461.396 61.8508 458.947 61.0391 456.474 61.1101C454.001 61.1811 451.574 62.1328 449.391 63.888L50.5061 411.973C48.3747 414.094 46.6054 416.946 45.3423 420.297C44.0793 423.648 43.3583 427.403 43.2383 431.255V918.788C43.3137 922.506 43.9645 926.145 45.1386 929.414C46.3127 932.683 47.9773 935.49 49.999 937.611Z" fill="#FF2CDF"/>
<path d="M64.2976 937.203L463.182 589.22C465.324 587.117 467.106 584.278 468.384 580.936C469.661 577.594 470.398 573.843 470.534 569.989V82.4046C470.534 75.33 467.239 72.444 463.182 75.994L64.2976 423.977C62.1579 426.083 60.377 428.922 59.0995 432.264C57.8221 435.605 57.084 439.355 56.9453 443.208V930.792C56.9453 937.867 60.2412 940.753 64.2976 937.203Z" fill="#FF2CDF"/>
<path opacity="0.5" d="M64.2976 937.203L463.182 589.22C465.324 587.117 467.106 584.278 468.384 580.936C469.661 577.594 470.398 573.843 470.534 569.989V82.4046C470.534 75.33 467.239 72.444 463.182 75.994L64.2976 423.977C62.1579 426.083 60.377 428.922 59.0995 432.264C57.8221 435.605 57.084 439.355 56.9453 443.208V930.792C56.9453 937.867 60.2412 940.753 64.2976 937.203Z" fill="black"/>
<path d="M63.2163 949.871C61.1246 951.25 58.8598 951.928 56.578 951.858C54.2962 951.787 52.0516 950.97 49.999 949.462C47.9728 947.336 46.3054 944.52 45.1311 941.242C43.9568 937.963 43.3084 934.314 43.2383 930.588V886.199L57.0133 898.254V942.643C56.9288 949.104 59.65 952.042 63.2163 949.871Z" fill="#FF2CDF"/>
<path opacity="0.5" d="M63.2163 949.871C61.1246 951.25 58.8598 951.928 56.578 951.858C54.2962 951.787 52.0516 950.97 49.999 949.462C47.9728 947.336 46.3054 944.52 45.1311 941.242C43.9568 937.963 43.3084 934.314 43.2383 930.588V886.199L57.0133 898.254V942.643C56.9288 949.104 59.65 952.042 63.2163 949.871Z" fill="black"/>
<path d="M56.9287 898.254V942.643C56.9287 949.718 60.3091 952.578 64.281 949.053L463.166 601.071C465.296 598.973 467.07 596.15 468.347 592.827C469.624 589.505 470.367 585.777 470.518 581.941V537.349L56.9287 898.254Z" fill="#FF2CDF"/>
<path opacity="0.3" d="M56.9453 898.152V942.643C56.9453 949.718 60.3257 952.578 64.2976 949.053L463.182 601.071C465.309 598.97 467.08 596.145 468.354 592.823C469.628 589.501 470.369 585.774 470.518 581.941V537.349L56.9453 898.152Z" fill="black"/>
<path d="M70.7207 842.449V450.13C70.7994 447.818 71.2385 445.568 72.0022 443.561C72.7658 441.555 73.8325 439.85 75.1152 438.585L452.264 109.451C454.698 107.332 456.675 109.043 456.675 113.282V505.807C456.593 508.12 456.151 510.371 455.385 512.377C454.618 514.383 453.549 516.087 452.264 517.351L75.1321 846.408C72.6982 848.528 70.7207 846.791 70.7207 842.449Z" fill="#FF2CDF"/>
<path d="M70.7207 842.449V450.13C70.7994 447.818 71.2385 445.568 72.0022 443.561C72.7658 441.555 73.8325 439.85 75.1152 438.585L452.264 109.451C454.698 107.332 456.675 109.043 456.675 113.282V505.807C456.593 508.12 456.151 510.371 455.385 512.377C454.618 514.383 453.549 516.087 452.264 517.351L75.1321 846.408C72.6982 848.528 70.7207 846.791 70.7207 842.449Z" fill="#263238"/>
<path d="M263.723 731.938C261.715 733.911 260.045 736.572 258.846 739.706C257.648 742.839 256.956 746.355 256.827 749.969C256.827 756.609 259.92 759.317 263.723 755.996C265.733 754.021 267.405 751.355 268.604 748.217C269.802 745.079 270.493 741.558 270.619 737.94C270.619 731.299 267.526 728.618 263.723 731.938Z" fill="#FF2CDF"/>
<path opacity="0.7" d="M59.1092 432.226C57.7992 435.553 57.0505 439.316 56.9288 443.183V898.254L43.2383 886.199V431.255C43.327 427.376 44.0718 423.595 45.4017 420.273L59.1092 432.226Z" fill="black"/>
<path opacity="0.3" d="M470.45 80.5657C469.926 74.8447 466.867 72.9037 463.165 75.994L64.2806 423.976C62.1179 426.02 60.3328 428.858 59.0917 432.226L45.2998 420.197C46.5492 416.83 48.3395 413.993 50.5056 411.947L449.39 63.9902C451.577 62.2348 454.006 61.283 456.482 61.212C458.958 61.141 461.409 61.9528 463.638 63.5816C465.512 65.5108 467.09 68.0254 468.265 70.9555C469.44 73.8857 470.185 77.1629 470.45 80.5657Z" fill="black"/>
<path d="M491.966 140.585C491.373 140.136 490.711 139.939 490.05 140.015C489.389 140.092 488.754 140.439 488.214 141.019L111.843 469.566C110.357 471.05 109.125 473.042 108.244 475.381C107.363 477.719 106.859 480.338 106.772 483.026V872.945C106.719 874.261 106.892 875.576 107.274 876.761C107.656 877.947 108.234 878.964 108.952 879.713C109.78 880.402 114.209 884.284 115.527 885.357C115.994 885.716 116.515 885.882 117.037 885.837C117.56 885.792 118.065 885.538 118.502 885.102L494.789 556.555C496.274 555.071 497.507 553.079 498.388 550.74C499.268 548.402 499.773 545.783 499.859 543.096V151.159C499.935 150.168 499.826 149.166 499.545 148.263C499.265 147.361 498.823 146.595 498.27 146.051C497.425 145.208 492.913 141.428 491.966 140.585Z" fill="#FF2CDF"/>
<path d="M118.417 475.083L494.805 146.664C497.645 144.11 499.876 146.204 499.876 151.159V543.096C499.789 545.783 499.285 548.402 498.404 550.74C497.523 553.079 496.29 555.071 494.805 556.555L118.417 885.102C115.578 887.656 113.347 883.544 113.347 878.589V488.542C113.436 485.856 113.941 483.238 114.822 480.901C115.703 478.563 116.934 476.57 118.417 475.083Z" fill="#FAFAFA"/>
<path d="M497.104 148.145C498.101 148.145 498.253 150.035 498.253 151.159V543.096C498.162 545.346 497.725 547.534 496.977 549.484C496.229 551.435 495.19 553.095 493.943 554.333L117.606 882.88C117.353 883.128 117.062 883.269 116.761 883.289C115.814 883.289 115.071 881.092 115.071 878.589V488.542C115.152 486.293 115.576 484.102 116.309 482.139C117.042 480.177 118.064 478.497 119.296 477.228L495.65 148.86C496.086 148.436 496.587 148.189 497.104 148.145ZM497.104 145.591C496.289 145.644 495.498 146.013 494.805 146.664L118.417 475.083C116.934 476.57 115.703 478.563 114.822 480.901C113.941 483.238 113.436 485.856 113.347 488.542V878.589C113.347 882.522 114.8 885.843 116.727 885.843C117.324 885.826 117.907 885.57 118.417 885.102L494.788 556.555C496.274 555.071 497.506 553.079 498.387 550.741C499.268 548.402 499.772 545.783 499.859 543.096V151.159C499.859 147.634 498.71 145.591 497.02 145.591H497.104Z" fill="#E0E0E0"/>
<path d="M108.851 879.713C109.409 880.147 113.415 883.595 115.172 885.127C114.541 884.336 114.041 883.333 113.713 882.198C113.384 881.062 113.236 879.827 113.279 878.589V514.006L106.688 508.183V872.945C106.633 874.259 106.804 875.572 107.182 876.757C107.561 877.943 108.136 878.961 108.851 879.713Z" fill="#F0F0F0"/>
<path d="M499.944 151.082C499.944 146.179 497.628 144.186 494.873 146.664L118.417 475.083C116.934 476.57 115.703 478.563 114.822 480.901C113.941 483.238 113.436 485.856 113.347 488.542V514.082L499.944 176.622V151.082Z" fill="#FF2CDF"/>
<g opacity="0.4">
<path d="M494.806 146.664L118.418 475.057C116.907 476.497 115.663 478.491 114.801 480.855L108.26 475.108C109.12 472.828 110.354 470.919 111.843 469.566L488.214 141.019C488.753 140.435 489.387 140.083 490.048 140.002C490.709 139.921 491.372 140.114 491.966 140.56C492.879 141.428 497.155 145.08 498.254 145.974C497.685 145.656 497.074 145.552 496.473 145.672C495.872 145.793 495.3 146.133 494.806 146.664Z" fill="white"/>
</g>
<path opacity="0.15" d="M106.688 508.208V482.898C106.757 480.14 107.299 477.456 108.259 475.108L114.817 480.829C113.87 483.136 113.34 485.778 113.279 488.491V514.031L106.688 508.208Z" fill="black"/>
<path d="M420.572 445.099L195.152 641.757C194.056 642.832 193.143 644.282 192.488 645.991C191.833 647.7 191.454 649.618 191.383 651.59V749.255C191.454 751.226 191.833 753.145 192.488 754.853C193.143 756.562 194.056 758.013 195.152 759.088L201.727 764.809C202.895 765.702 204.186 766.167 205.496 766.167C206.805 766.167 208.097 765.702 209.265 764.809L434.652 568.151C435.748 567.07 436.661 565.615 437.316 563.902C437.971 562.189 438.349 560.267 438.421 558.292V460.602C438.349 458.63 437.971 456.712 437.316 455.003C436.661 453.294 435.748 451.844 434.652 450.769L428.06 445.048C426.897 444.169 425.613 443.716 424.312 443.725C423.012 443.734 421.73 444.204 420.572 445.099Z" fill="#FF2CDF"/>
<path opacity="0.5" d="M438.421 459.733C438.151 456.796 436.579 455.723 434.686 457.383L209.266 654.041C208.154 655.085 207.24 656.546 206.612 658.281L192.499 645.971C193.132 644.263 194.038 642.822 195.136 641.782L420.573 445.124C421.738 444.229 423.027 443.763 424.334 443.763C425.641 443.763 426.929 444.229 428.094 445.124L434.686 450.845C435.691 451.84 436.544 453.148 437.188 454.68C437.832 456.213 438.253 457.936 438.421 459.733Z" fill="white"/>
<path d="M208.623 765.294C207.519 765.951 206.336 766.25 205.151 766.171C203.966 766.091 202.805 765.636 201.744 764.834L195.152 759.113C194.058 758.035 193.146 756.584 192.492 754.876C191.837 753.168 191.457 751.251 191.383 749.28V651.615C191.434 649.622 191.817 647.68 192.498 645.971L206.611 658.281C205.926 659.968 205.541 661.896 205.496 663.874V761.565C205.496 764.808 206.848 766.315 208.623 765.294Z" fill="#263238"/>
<path d="M209.266 654.042L434.686 457.383C436.765 455.57 438.455 457.026 438.455 460.653V558.343C438.384 560.318 438.005 562.24 437.35 563.953C436.695 565.666 435.783 567.121 434.686 568.202L209.299 764.86C207.22 766.673 205.53 765.192 205.53 761.565V663.9C205.598 661.929 205.972 660.01 206.62 658.298C207.269 656.586 208.175 655.128 209.266 654.042Z" fill="#FF2CDF"/>
<path d="M360.807 497.251L195.169 641.782C194.071 642.822 193.165 644.263 192.532 645.971L206.645 658.281C207.273 656.546 208.187 655.085 209.299 654.042L374.937 509.536L360.807 497.251Z" fill="#455A64"/>
<path d="M374.904 509.536L209.265 654.042C208.169 655.122 207.256 656.577 206.601 658.29C205.946 660.003 205.568 661.925 205.496 663.9V761.539C205.496 765.166 207.186 766.647 209.265 764.834L374.904 620.329V509.536Z" fill="#37474F"/>
<path d="M247.464 642.14L332.937 567.589C336.469 564.498 339.342 566.695 339.342 572.492C339.184 575.748 338.52 578.902 337.404 581.698C336.289 584.494 334.752 586.852 332.92 588.582L247.464 663.159C243.931 666.25 241.041 664.053 241.041 658.256C241.2 654.997 241.865 651.84 242.981 649.04C244.096 646.241 245.632 643.877 247.464 642.14Z" fill="#FF2CDF"/>
<path d="M264.974 666.837C264.99 666.81 265.009 666.788 265.031 666.773C265.053 666.758 265.077 666.751 265.101 666.751C265.125 666.751 265.148 666.758 265.17 666.773C265.192 666.788 265.212 666.81 265.227 666.837C265.303 667.011 265.339 667.217 265.329 667.424V681.957C265.33 683.361 265.251 684.762 265.092 686.145C264.953 687.409 264.714 688.644 264.382 689.823C264.079 690.903 263.682 691.917 263.199 692.837C262.724 693.69 262.151 694.408 261.509 694.957C261.006 695.452 260.419 695.718 259.819 695.723C259.59 695.695 259.366 695.597 259.163 695.435C258.959 695.272 258.78 695.049 258.636 694.778C258.265 694.027 258.021 693.15 257.926 692.224C257.764 690.988 257.691 689.729 257.706 688.469V673.912C257.706 673.657 257.74 673.405 257.808 673.171C257.849 672.96 257.939 672.779 258.061 672.66L259.126 671.715C259.16 671.667 259.206 671.64 259.253 671.64C259.3 671.64 259.345 671.667 259.379 671.715C259.458 671.887 259.493 672.095 259.481 672.303V686.656C259.468 687.446 259.519 688.235 259.633 689.006C259.68 689.499 259.821 689.96 260.039 690.334C260.115 690.471 260.211 690.579 260.319 690.65C260.428 690.721 260.546 690.753 260.664 690.743C260.953 690.714 261.232 690.573 261.475 690.334C261.776 690.062 262.049 689.727 262.287 689.338C262.55 688.879 262.767 688.362 262.929 687.805C263.12 687.15 263.261 686.465 263.351 685.762C263.45 684.919 263.495 684.064 263.487 683.208V668.829C263.492 668.573 263.532 668.321 263.605 668.089C263.646 667.878 263.736 667.697 263.858 667.578L264.974 666.837Z" fill="#FAFAFA"/>
<path d="M271.6 680.578C271.608 680.39 271.579 680.203 271.515 680.041C271.475 679.975 271.425 679.924 271.369 679.893C271.313 679.862 271.253 679.851 271.194 679.862C270.986 679.82 270.776 679.82 270.569 679.862L269.588 680.143C269.272 680.262 268.941 680.262 268.625 680.143C268.377 680.023 268.162 679.78 268.016 679.454C267.851 679.039 267.742 678.579 267.695 678.1C267.53 676.732 267.53 675.331 267.695 673.963C267.822 673.178 268.003 672.417 268.236 671.69C268.468 670.964 268.751 670.279 269.081 669.646C269.401 669.044 269.79 668.533 270.231 668.14C270.586 667.812 270.984 667.603 271.397 667.527C271.697 667.48 271.998 667.578 272.259 667.808C272.507 668.036 272.702 668.375 272.816 668.778C272.953 669.255 273.027 669.766 273.036 670.285C273.054 670.542 273.018 670.801 272.935 671.026C272.893 671.236 272.803 671.417 272.681 671.536L271.667 672.43C271.621 672.471 271.568 672.492 271.515 672.492C271.462 672.492 271.409 672.471 271.363 672.43L271.143 672.175C271.056 672.071 270.95 672.009 270.839 671.996C270.622 672.033 270.413 672.147 270.231 672.328C269.965 672.57 269.73 672.881 269.538 673.248C269.333 673.65 269.226 674.145 269.233 674.652C269.209 674.846 269.209 675.046 269.233 675.24C269.266 675.312 269.308 675.372 269.358 675.416C269.408 675.461 269.463 675.487 269.521 675.495C269.705 675.542 269.894 675.542 270.078 675.495L271.025 675.24C271.819 675.01 272.36 675.24 272.715 675.904C273.088 676.85 273.259 677.947 273.205 679.045C273.201 679.804 273.133 680.56 273.002 681.293C272.869 682.089 272.676 682.86 272.428 683.591C272.179 684.348 271.867 685.052 271.498 685.686C271.148 686.306 270.731 686.833 270.264 687.244C269.893 687.603 269.47 687.822 269.03 687.882C268.713 687.899 268.399 687.765 268.135 687.499C267.874 687.23 267.673 686.847 267.56 686.401C267.423 685.916 267.354 685.395 267.357 684.868C267.341 684.603 267.377 684.337 267.459 684.102C267.5 683.892 267.59 683.71 267.712 683.591L268.726 682.697C268.861 682.697 268.963 682.57 269.03 682.697L269.25 683.055C269.295 683.131 269.35 683.193 269.411 683.237C269.472 683.281 269.538 683.306 269.605 683.31C269.843 683.312 270.075 683.196 270.264 682.978C270.569 682.717 270.844 682.38 271.076 681.982C271.191 681.772 271.287 681.54 271.363 681.293C271.482 681.09 271.564 680.843 271.6 680.578Z" fill="#FAFAFA"/>
<path d="M275.047 673.656C275.044 672.329 275.118 671.005 275.267 669.697C275.408 668.467 275.629 667.261 275.926 666.096C276.175 665.052 276.516 664.064 276.94 663.159C277.295 662.381 277.756 661.728 278.293 661.244C278.684 660.846 279.162 660.69 279.628 660.81C280.041 660.954 280.403 661.328 280.642 661.857C280.96 662.55 281.184 663.331 281.301 664.155C281.463 665.228 281.543 666.325 281.538 667.424V669.008C281.543 669.274 281.502 669.539 281.419 669.774C281.378 669.985 281.288 670.166 281.166 670.285L276.771 674.141C276.761 674.591 276.801 675.04 276.89 675.469C276.955 675.759 277.072 676.015 277.228 676.21C277.366 676.376 277.541 676.458 277.718 676.44C277.922 676.404 278.118 676.299 278.293 676.134C278.548 675.924 278.777 675.647 278.969 675.316C279.142 675.022 279.289 674.696 279.408 674.346C279.48 674.144 279.559 673.948 279.645 673.758C279.717 673.628 279.803 673.516 279.898 673.426L280.946 672.507C280.982 672.463 281.027 672.44 281.073 672.44C281.119 672.44 281.164 672.463 281.2 672.507C281.244 672.588 281.276 672.682 281.294 672.784C281.311 672.885 281.314 672.991 281.301 673.094C281.283 673.592 281.214 674.083 281.098 674.55C280.952 675.259 280.76 675.943 280.524 676.593C280.259 677.341 279.942 678.043 279.577 678.688C279.213 679.346 278.779 679.907 278.293 680.348C277.893 680.743 277.415 680.915 276.94 680.833C276.525 680.682 276.162 680.299 275.926 679.76C275.594 678.986 275.369 678.117 275.267 677.206C275.113 676.037 275.04 674.848 275.047 673.656ZM278.293 665.509C278.033 665.72 277.807 666.017 277.633 666.377C277.446 666.735 277.292 667.13 277.177 667.552C277.059 667.974 276.963 668.41 276.89 668.855C276.83 669.258 276.791 669.668 276.771 670.081L279.746 667.527C279.729 667.174 279.695 666.824 279.645 666.479C279.619 666.171 279.537 665.879 279.408 665.637C279.358 665.526 279.292 665.433 279.217 665.363C279.141 665.292 279.057 665.246 278.969 665.228C278.728 665.197 278.489 665.297 278.293 665.509Z" fill="#FAFAFA"/>
<path d="M286.845 658.383C286.333 658.825 285.929 659.506 285.695 660.324C285.432 661.402 285.312 662.548 285.341 663.696V672.915C285.343 673.179 285.308 673.44 285.239 673.682C285.198 673.892 285.108 674.073 284.986 674.192L283.988 675.061C283.973 675.088 283.953 675.11 283.931 675.125C283.909 675.14 283.886 675.147 283.862 675.147C283.838 675.147 283.814 675.14 283.792 675.125C283.77 675.11 283.751 675.088 283.735 675.061C283.659 674.887 283.624 674.681 283.633 674.473V657.949C283.634 657.686 283.669 657.426 283.735 657.183C283.782 656.977 283.871 656.798 283.988 656.672L284.986 655.804C285.02 655.755 285.065 655.728 285.112 655.728C285.159 655.728 285.205 655.755 285.239 655.804C285.317 655.966 285.354 656.166 285.341 656.366V657.183C285.542 656.498 285.791 655.847 286.084 655.242C286.352 654.682 286.698 654.22 287.098 653.888L287.707 653.352C287.738 653.305 287.781 653.279 287.825 653.279C287.869 653.279 287.912 653.305 287.943 653.352C288.025 653.522 288.067 653.729 288.062 653.939V656.263C288.059 656.529 288.018 656.79 287.943 657.03C287.901 657.232 287.818 657.41 287.707 657.54L286.845 658.383Z" fill="#FAFAFA"/>
<path d="M299.453 657.157C299.469 657.13 299.489 657.108 299.511 657.093C299.533 657.079 299.556 657.071 299.58 657.071C299.604 657.071 299.628 657.079 299.65 657.093C299.672 657.108 299.691 657.13 299.707 657.157C299.783 657.331 299.818 657.537 299.808 657.745V660.299C299.808 660.562 299.773 660.822 299.707 661.065C299.649 661.255 299.562 661.421 299.453 661.55L293.673 666.658C293.639 666.707 293.593 666.734 293.546 666.734C293.499 666.734 293.454 666.707 293.419 666.658C293.344 666.494 293.308 666.296 293.318 666.096V643.11C293.319 642.847 293.353 642.587 293.419 642.344C293.467 642.145 293.556 641.975 293.673 641.859L294.738 640.914C294.772 640.865 294.818 640.838 294.865 640.838C294.912 640.838 294.957 640.865 294.991 640.914C295.067 641.078 295.103 641.276 295.093 641.476V660.912L299.453 657.157Z" fill="#FAFAFA"/>
<path d="M304.643 638.258C305.023 637.86 305.483 637.671 305.944 637.721C306.34 637.769 306.709 638.043 306.975 638.488C307.29 639.034 307.521 639.68 307.651 640.378C307.832 641.282 307.934 642.217 307.956 643.161C307.956 643.366 307.956 643.647 307.956 643.979V645.945C307.956 646.252 307.956 646.533 307.956 646.763C307.922 647.873 307.82 648.976 307.651 650.057C307.495 651.111 307.269 652.137 306.975 653.122C306.707 654.038 306.361 654.897 305.944 655.676C305.588 656.382 305.146 656.98 304.643 657.438C304.252 657.822 303.79 658.01 303.325 657.975C302.934 657.924 302.572 657.65 302.31 657.208C301.986 656.681 301.754 656.04 301.634 655.344C301.454 654.44 301.351 653.504 301.33 652.56C301.33 652.356 301.33 652.1 301.33 651.768V649.802C301.33 649.47 301.33 649.189 301.33 648.985C301.35 647.866 301.446 646.753 301.617 645.664C301.782 644.603 302.014 643.568 302.31 642.574C302.579 641.664 302.919 640.806 303.325 640.02C303.683 639.307 304.131 638.708 304.643 638.258ZM306.232 644.847C306.231 644.282 306.168 643.721 306.046 643.187C305.983 642.861 305.853 642.575 305.674 642.37C305.53 642.224 305.356 642.16 305.184 642.191C304.991 642.246 304.807 642.359 304.643 642.523C304.444 642.687 304.262 642.894 304.102 643.136C303.908 643.44 303.743 643.784 303.612 644.157C303.442 644.622 303.317 645.121 303.24 645.639C303.129 646.291 303.061 646.958 303.037 647.631C303.037 647.835 303.037 648.065 303.037 648.346V650.159C303.037 650.44 303.037 650.67 303.037 650.823C303.053 651.388 303.121 651.947 303.24 652.483C303.302 652.81 303.432 653.097 303.612 653.301C303.682 653.376 303.762 653.428 303.846 653.455C303.931 653.481 304.018 653.481 304.102 653.454C304.294 653.405 304.477 653.301 304.643 653.148C304.839 652.977 305.02 652.771 305.184 652.535C305.372 652.223 305.537 651.881 305.674 651.513C305.836 651.043 305.961 650.546 306.046 650.032C306.156 649.38 306.218 648.712 306.232 648.04C306.242 647.801 306.242 647.563 306.232 647.324V645.537C306.241 645.307 306.241 645.077 306.232 644.847Z" fill="#FAFAFA"/>
<path d="M313.127 653.199C313.343 652.999 313.537 652.749 313.702 652.458C313.905 652.098 314.081 651.704 314.226 651.283C314.394 650.77 314.524 650.23 314.614 649.674C314.718 649.048 314.769 648.404 314.766 647.759V646.456C314.766 646.712 314.597 647.018 314.479 647.376C314.363 647.749 314.228 648.108 314.073 648.448C313.897 648.807 313.705 649.149 313.499 649.47C313.287 649.806 313.042 650.09 312.772 650.313C312.598 650.492 312.402 650.616 312.196 650.677C311.99 650.739 311.778 650.736 311.572 650.67C311.196 650.492 310.874 650.122 310.659 649.623C310.384 648.963 310.184 648.238 310.068 647.478C309.924 646.513 309.844 645.529 309.831 644.541C309.831 644.209 309.831 643.8 309.831 643.315C309.831 642.829 309.831 642.421 309.831 642.063C309.852 640.94 309.931 639.822 310.068 638.718C310.207 637.631 310.404 636.563 310.659 635.525C310.898 634.624 311.204 633.767 311.572 632.971C311.884 632.267 312.293 631.674 312.772 631.234C312.997 631.03 313.242 630.883 313.499 630.8C313.689 630.747 313.884 630.747 314.073 630.8C314.223 630.864 314.362 630.977 314.479 631.132C314.587 631.257 314.684 631.403 314.766 631.566V630.749C314.767 630.486 314.802 630.226 314.868 629.983C314.915 629.784 315.004 629.613 315.121 629.498L316.119 628.604C316.153 628.555 316.198 628.528 316.245 628.528C316.292 628.528 316.338 628.555 316.372 628.604C316.454 628.774 316.495 628.981 316.49 629.191V645.792C316.536 648.279 316.231 650.751 315.595 653.045C315.096 654.85 314.232 656.37 313.127 657.387C312.75 657.741 312.319 657.943 311.876 657.975C311.526 658.007 311.177 657.873 310.879 657.592C310.593 657.268 310.362 656.849 310.203 656.366C310.038 655.783 309.946 655.16 309.932 654.527C309.917 654.262 309.952 653.996 310.034 653.761C310.075 653.55 310.165 653.369 310.287 653.25L311.183 652.484C311.204 652.45 311.229 652.424 311.256 652.406C311.284 652.388 311.314 652.378 311.344 652.378C311.374 652.378 311.404 652.388 311.431 652.406C311.459 652.424 311.484 652.45 311.504 652.484C311.588 652.616 311.661 652.762 311.724 652.918C311.827 653.192 311.997 653.393 312.197 653.48C312.4 653.71 312.704 653.454 313.127 653.199ZM311.538 640.812C311.538 641.493 311.538 642.157 311.538 642.804C311.49 643.824 311.681 644.837 312.079 645.664C312.229 645.86 312.421 645.968 312.62 645.968C312.818 645.968 313.01 645.86 313.161 645.664C313.651 645.183 314.034 644.488 314.259 643.672C314.567 642.607 314.739 641.463 314.766 640.301C314.766 639.918 314.766 639.458 314.766 638.922C314.766 638.386 314.766 637.926 314.766 637.594C314.801 636.679 314.621 635.775 314.259 635.04C314.11 634.832 313.914 634.716 313.71 634.716C313.507 634.716 313.31 634.832 313.161 635.04C312.68 635.52 312.303 636.204 312.079 637.006C311.732 638.207 311.548 639.501 311.538 640.812Z" fill="#FAFAFA"/>
<path d="M320.429 618.132C320.462 618.091 320.504 618.068 320.547 618.068C320.59 618.068 320.632 618.091 320.665 618.132C320.754 618.297 320.796 618.508 320.784 618.72V621.504C320.785 621.769 320.744 622.032 320.665 622.27C320.618 622.462 320.536 622.63 320.429 622.755L319.296 623.751C319.28 623.778 319.261 623.8 319.239 623.815C319.217 623.83 319.193 623.838 319.169 623.838C319.145 623.838 319.122 623.83 319.1 623.815C319.078 623.8 319.059 623.778 319.043 623.751C318.999 623.675 318.965 623.585 318.945 623.489C318.925 623.392 318.918 623.29 318.924 623.189V620.405C318.923 620.139 318.964 619.877 319.043 619.639C319.09 619.44 319.179 619.27 319.296 619.154L320.429 618.132ZM320.716 642.114C320.717 642.369 320.682 642.621 320.615 642.855C320.561 643.056 320.473 643.231 320.361 643.366L319.347 644.234C319.333 644.261 319.315 644.282 319.294 644.297C319.274 644.312 319.251 644.32 319.229 644.32C319.206 644.32 319.184 644.312 319.163 644.297C319.143 644.282 319.125 644.261 319.11 644.234C319.022 644.069 318.979 643.858 318.992 643.647V627.122C318.991 626.856 319.031 626.594 319.11 626.356C319.158 626.157 319.24 625.981 319.347 625.845L320.361 624.977C320.395 624.929 320.441 624.902 320.488 624.902C320.535 624.902 320.58 624.929 320.615 624.977C320.69 625.141 320.726 625.34 320.716 625.539V642.114Z" fill="#FAFAFA"/>
<path d="M329.606 634.325C329.605 634.588 329.571 634.848 329.505 635.091C329.458 635.29 329.369 635.46 329.251 635.576L328.237 636.47C328.206 636.517 328.163 636.543 328.119 636.543C328.075 636.543 328.032 636.517 328.001 636.47C327.912 636.305 327.87 636.094 327.882 635.883V626.893C327.934 625.831 327.806 624.768 327.51 623.802C327.274 623.164 326.902 623.061 326.378 623.521C325.855 624.052 325.468 624.835 325.279 625.743C324.997 626.948 324.86 628.22 324.874 629.498V638.513C324.873 638.776 324.838 639.036 324.772 639.279C324.731 639.49 324.641 639.671 324.519 639.79L323.522 640.659C323.506 640.686 323.486 640.708 323.464 640.722C323.443 640.737 323.419 640.745 323.395 640.745C323.371 640.745 323.347 640.737 323.325 640.722C323.303 640.708 323.284 640.686 323.268 640.659C323.19 640.496 323.154 640.296 323.167 640.097V623.572C323.164 623.309 323.199 623.048 323.268 622.806C323.309 622.596 323.399 622.414 323.522 622.295L324.519 621.427C324.535 621.4 324.554 621.378 324.576 621.363C324.598 621.348 324.622 621.34 324.646 621.34C324.67 621.34 324.693 621.348 324.715 621.363C324.737 621.378 324.757 621.4 324.772 621.427C324.848 621.601 324.884 621.807 324.874 622.014V622.806C325.096 622.028 325.368 621.284 325.685 620.584C325.963 619.939 326.34 619.405 326.784 619.026C327.168 618.601 327.647 618.418 328.119 618.515C328.306 618.587 328.481 618.717 328.632 618.897C328.784 619.077 328.908 619.304 328.998 619.563C329.243 620.254 329.404 621.007 329.471 621.785C329.561 622.8 329.606 623.824 329.606 624.849V634.325Z" fill="#FAFAFA"/>
<path d="M414.86 559.978L398.449 574.28L401.001 539.495C399.023 537.911 397.772 534.055 397.772 528.512C397.772 518.628 401.761 507.161 406.663 502.972C411.564 498.784 415.536 503.228 415.536 513.188C415.435 519.049 414.328 524.769 412.325 529.789L414.86 559.978Z" fill="#455A64"/>
<path d="M414.877 559.978L400.426 547.386L398.448 574.306L414.877 559.978Z" fill="#37474F"/>
<path d="M406.629 502.896C403.054 506.545 400.389 511.893 399.057 518.092L412.291 529.636C414.294 524.616 415.401 518.896 415.502 513.035C415.536 503.151 411.564 498.631 406.629 502.896Z" fill="#37474F"/>
<path d="M326.852 387.072C321.224 382.168 313.466 382.858 304.88 390.341C287.741 405.307 273.848 441.651 273.848 471.558C273.848 486.576 277.363 497.098 283.008 501.951L293.944 511.554C299.555 516.458 307.313 515.742 315.916 508.259C333.055 493.318 346.948 456.949 346.948 427.042C346.948 412.101 343.467 401.502 337.855 396.726" fill="#FF2CDF"/>
<path d="M315.899 399.97C298.761 414.936 284.867 451.305 284.867 481.187C284.867 511.069 298.761 523.226 315.899 508.259C333.038 493.293 346.948 456.949 346.931 427.042C346.914 397.135 333.021 385.029 315.899 399.97Z" fill="#FF2CDF"/>
<path d="M333.021 466.323V469.745C328.915 480.819 323.026 490.149 315.899 496.868C309.223 502.666 303.189 503.304 298.761 499.601V492.552C298.987 485.218 300.373 478.073 302.802 471.715C305.231 465.356 308.632 459.969 312.722 456.004L317.235 452.071C321.223 448.598 325.111 448.138 328.153 450.82C331.195 453.501 333.021 459.146 333.021 466.323Z" fill="#FF2CDF"/>
<path opacity="0.4" d="M326.852 387.072L337.838 396.726C332.227 391.797 324.469 392.486 315.866 399.97C304.643 409.777 294.806 428.753 289.363 449.083L278.36 439.454C283.82 419.022 293.572 400.148 304.862 390.341C313.482 382.883 321.24 382.168 326.852 387.072Z" fill="white"/>
<path opacity="0.2" d="M293.555 511.171L283.025 501.951C277.38 497.098 273.864 486.627 273.864 471.558L284.867 481.212C284.935 495.77 288.18 506.139 293.555 511.171Z" fill="black"/>
<path opacity="0.1" d="M278.394 439.454L289.397 449.083C286.578 459.261 285.063 470.155 284.935 481.187L273.932 471.533C274.067 460.51 275.581 449.626 278.394 439.454Z" fill="black"/>
<path d="M311.978 450.462C310.93 450.479 309.897 450.074 308.987 449.287C307.889 448.182 307.01 446.649 306.442 444.851C305.874 443.053 305.637 441.056 305.758 439.071C305.902 434.418 306.781 429.884 308.322 425.85C309.862 421.815 312.02 418.397 314.615 415.881C315.657 414.624 316.926 413.871 318.256 413.721C319.586 413.571 320.915 414.032 322.069 415.041C323.223 416.051 324.148 417.564 324.724 419.382C325.3 421.199 325.5 423.237 325.297 425.229C325.151 429.881 324.271 434.413 322.73 438.447C321.189 442.481 319.033 445.9 316.44 448.419C315.099 449.684 313.559 450.389 311.978 450.462Z" fill="white"/>
<path d="M328.153 450.794C325.111 448.112 321.223 448.572 317.235 452.046L312.722 455.979C308.63 459.946 305.227 465.337 302.798 471.7C300.369 478.064 298.985 485.214 298.761 492.552V499.627C303.189 503.33 309.223 502.691 315.899 496.894C323.026 490.174 328.915 480.845 333.021 469.77V466.348C333.021 459.146 331.263 453.501 328.153 450.794Z" fill="white"/>
<path d="M674.412 892.944C674.412 892.944 676.66 863.113 686.48 839.948C696.3 816.783 709.788 802.353 722.38 800.846C734.972 799.34 745.147 816.86 731.676 828.94C718.205 841.021 694.272 853.229 683.252 898.179L674.412 892.944Z" fill="#FF2CDF"/>
<path opacity="0.1" d="M674.412 892.944C674.412 892.944 676.66 863.113 686.48 839.948C696.3 816.783 709.788 802.353 722.38 800.846C734.972 799.34 745.147 816.86 731.676 828.94C718.205 841.021 694.272 853.229 683.252 898.179L674.412 892.944Z" fill="black"/>
<path d="M678.114 885.179H677.979C677.813 885.077 677.681 884.88 677.611 884.632C677.541 884.383 677.54 884.102 677.607 883.851C690.892 834.432 716.177 813.77 727.704 809.785C727.79 809.755 727.88 809.751 727.968 809.773C728.055 809.795 728.139 809.844 728.215 809.915C728.29 809.986 728.355 810.079 728.407 810.188C728.458 810.297 728.495 810.421 728.515 810.552C728.535 810.682 728.538 810.818 728.523 810.95C728.509 811.083 728.477 811.209 728.43 811.323C728.383 811.437 728.321 811.536 728.249 811.614C728.176 811.692 728.095 811.747 728.008 811.778C716.718 815.711 691.923 835.989 678.857 884.643C678.792 884.847 678.683 885.011 678.548 885.109C678.413 885.206 678.26 885.231 678.114 885.179Z" fill="white"/>
<path d="M745.35 885.767C744.217 889.649 741.411 891.692 738.809 893.276C736.206 894.859 733.366 896.57 731.946 900.248C729.107 907.655 733.772 918.126 730.729 925.303C730.013 926.748 729.111 927.959 728.077 928.863C727.043 929.767 725.898 930.346 724.712 930.564C722.769 931.1 720.791 931.1 718.831 931.356C717.892 931.337 716.954 931.226 716.025 931.024C713.294 930.103 710.438 930.56 707.895 932.326C703.991 935.647 702.824 943.079 700.424 948.825C698.958 952.209 697.026 955.074 694.759 957.225C692.493 959.376 689.945 960.762 687.292 961.289C685.601 961.621 682.221 962.106 680.531 960.599C680.399 960.501 680.274 960.381 680.159 960.242C679.905 959.833 679.601 959.297 679.466 959.016C679.457 958.957 679.457 958.896 679.466 958.837C678.773 954.98 679.905 950.996 679.956 947.012V946.297C679.838 941.674 679.753 937.077 679.686 932.48C679.539 923.966 679.483 915.453 679.517 906.94C679.517 901.423 679.111 895.395 680.666 890.211C682.356 884.49 686.616 884.362 688.221 878.769C688.863 876.521 689.202 874.146 689.827 871.873C690.793 868.568 692.341 865.728 694.302 863.661C696.263 861.594 698.562 860.38 700.948 860.15C708.368 859.588 715.011 868.655 722.431 867.812C724.341 867.582 726.217 866.689 728.11 866.178C734.11 864.467 741.056 867.046 744.437 874.734C745.179 876.317 745.65 878.152 745.809 880.077C745.969 882.002 745.811 883.957 745.35 885.767Z" fill="#FF2CDF"/>
<path d="M678.722 941.138C678.562 941.066 678.427 940.904 678.345 940.685C678.263 940.465 678.24 940.207 678.282 939.963C688.525 881.885 728.988 873.559 738.504 874.529C738.588 874.536 738.669 874.568 738.745 874.623C738.82 874.678 738.888 874.756 738.943 874.851C738.998 874.946 739.04 875.057 739.066 875.178C739.092 875.298 739.102 875.425 739.095 875.551C739.078 875.799 738.998 876.028 738.873 876.19C738.747 876.352 738.584 876.434 738.419 876.419C729.14 875.423 689.522 883.622 679.499 940.474C679.452 940.715 679.345 940.919 679.199 941.043C679.054 941.167 678.883 941.201 678.722 941.138Z" fill="white"/>
<path d="M723.732 911.716C723.604 911.689 723.485 911.599 723.394 911.46C719.653 906.561 715.243 902.97 710.478 900.944C705.712 898.918 700.71 898.506 695.827 899.737C695.663 899.76 695.498 899.689 695.367 899.538C695.235 899.386 695.146 899.166 695.117 898.92C695.093 898.67 695.134 898.415 695.232 898.21C695.33 898.005 695.476 897.866 695.641 897.822C700.734 896.541 705.951 896.978 710.918 899.102C715.886 901.226 720.481 904.984 724.374 910.107C724.434 910.195 724.482 910.3 724.514 910.416C724.547 910.532 724.563 910.657 724.563 910.783C724.563 910.91 724.547 911.034 724.514 911.151C724.482 911.267 724.434 911.372 724.374 911.46C724.298 911.598 724.195 911.697 724.08 911.742C723.965 911.788 723.844 911.779 723.732 911.716Z" fill="white"/>
<path d="M582.612 191.179L587.987 194.295V176.417C587.987 162.217 595.474 158.82 603.604 165.92C611.751 173.02 618.343 190.26 618.343 204.46V207.014C619.476 206.491 620.672 206.362 621.843 206.636C623.014 206.91 624.128 207.581 625.103 208.598C628.19 211.639 630.759 215.739 632.6 220.563C634.442 225.386 635.504 230.799 635.701 236.36V237.534L643.205 244.073C645.236 246.075 646.925 248.772 648.138 251.944C649.351 255.117 650.052 258.676 650.186 262.334C650.186 269.076 647.059 271.809 643.205 268.438L582.612 215.545C580.58 213.547 578.89 210.851 577.68 207.677C576.47 204.503 575.773 200.942 575.648 197.283C575.648 190.566 578.741 187.834 582.612 191.179Z" fill="#E6E6E6"/>
<path d="M653.386 177.339L663.139 185.843C663.085 185.2 663.057 184.551 663.054 183.902V179.637C663.054 171.975 666.57 168.962 670.931 172.767C672.804 174.501 674.407 176.827 675.629 179.586C676.339 170.034 681.308 166.484 687.325 171.72C690.764 175.101 693.627 179.658 695.683 185.023C697.738 190.387 698.928 196.408 699.157 202.598V208.983C699.2 211.534 698.859 214.067 698.16 216.389L706.272 223.438C707.537 224.705 708.587 226.403 709.338 228.395C710.09 230.386 710.522 232.616 710.599 234.906C710.599 239.12 708.639 240.831 706.222 238.737L653.386 192.765C652.108 191.507 651.046 189.81 650.285 187.812C649.524 185.815 649.087 183.573 649.009 181.272C649.009 176.956 650.969 175.244 653.386 177.339Z" fill="#E6E6E6"/>
<path d="M616.837 564.651C609.738 582.785 602.91 598.543 598.11 606.103C589 612.488 567.602 622.346 559.235 623.981C557.766 624.263 556.278 623.738 555.044 622.499C551.748 619.23 549.196 618.694 545.731 616.88C543.009 615.476 541.86 613.509 541.353 614.326C540.829 615.254 540.566 616.454 540.62 617.671C540.673 618.888 541.04 620.025 541.64 620.839C542.94 622.706 544.381 624.334 545.934 625.692C542.222 627.083 538.351 627.188 534.609 625.998C527.358 623.112 523.944 628.373 528.846 640.275C530.536 644.515 537.499 651.334 551.494 649.495C556.487 649.088 561.459 648.235 566.385 646.941C579.805 642.599 594.729 638.411 603.907 634.171C607.321 632.143 610.376 628.942 612.831 624.823C628.263 598.236 633.384 579.286 640.145 562.072L639.57 533.978C628.618 533.416 622.769 549.48 616.837 564.651Z" fill="#FFCDEA"/>
<path d="M641.446 533.416C638.27 532.741 635.033 533.391 632.084 535.295C629.134 537.199 626.586 540.285 624.713 544.219C617.209 558.751 603.924 593.639 603.924 593.639C603.924 593.639 608.268 611.134 619.997 614.071L638.843 575.608C638.843 575.608 647.767 548.893 641.446 533.416Z" fill="#455A64"/>
<path d="M680.986 925.865H668.698V958.965H680.986V925.865Z" fill="#FFCDEA"/>
<path d="M639.604 923.794L627.333 924.458L626.708 889.418L639.604 888.754V923.794Z" fill="#FFCDEA"/>
<path d="M683.921 639.024C683.921 657.463 682.13 806.03 682.13 806.03C682.4 811.342 685.51 821.149 684.885 841.556C683.955 869.267 682.721 942.107 682.721 942.107C680.612 943.738 678.285 944.622 675.916 944.693C673.547 944.764 671.198 944.019 669.048 942.515C669.048 942.515 659.075 840.355 656.878 813.002C654.951 789.02 650.016 709.642 650.016 709.642L643.374 803.476C644.782 813.544 645.293 823.851 644.895 834.124C644.32 846.894 640.365 912.991 640.365 912.991C638.242 914.883 635.862 916.021 633.405 916.317C630.948 916.614 628.479 916.061 626.184 914.702C626.184 914.702 619.187 815.096 619.052 803.399C618.883 790.118 623.142 638.87 623.142 638.87L683.921 639.024Z" fill="#37474F"/>
<path d="M668.699 949.413V946.655C667.516 947.446 664.795 963.843 659.91 970.841C656.039 976.409 650.766 982.819 649.414 989.025C648.062 995.232 656.766 999.037 660.4 998.041C664.592 996.866 671.893 992.192 673.719 987.825C675.544 983.458 676.406 977.124 677.893 973.957C679.381 970.79 682.812 967.265 683.606 963.588C683.854 960.147 683.618 956.665 682.913 953.372C682.339 949.949 681.73 946.195 680.987 946.527V948.621C679.254 950.77 677.076 951.928 674.834 951.89C673.043 952.12 668.682 951.558 668.699 949.413Z" fill="#263238"/>
<path d="M627.198 918.482C626.556 918.482 626.032 919.938 624.629 922.338C622.543 925.654 620.103 928.417 617.412 930.511C612.815 934.138 603.89 939.706 599.817 942.592C597.282 944.379 597.4 949.181 600.02 951.914C602.64 954.646 608.944 956.613 616.516 953.957C620.64 952.501 626.015 946.499 629.429 946.831C632.843 947.163 639.181 947.061 641.7 944.277C644.218 941.493 643.204 935.721 642.494 930.741C641.717 925.276 640.804 916.771 639.604 917.154V919.069C638.134 922.594 630.511 924.024 627.266 921.445L627.198 918.482Z" fill="#263238"/>
<path d="M650.016 709.642C643.624 706.48 637.78 701.201 632.911 694.19C632.911 694.19 636.292 703.921 646.027 712.987L643.931 796.784L650.016 709.642Z" fill="#263238"/>
<path d="M677.059 536.123C677.059 536.123 687.2 539.647 686.474 567.332L684.361 611.389V677.538C675.335 693.015 635.345 691.891 621.57 676.312C621.57 676.312 623.125 598.032 624.055 567.894C624.714 546.492 627.976 535.714 641.903 533.364L659.025 534.488L677.059 536.123Z" fill="#FF2CDF"/>
<path d="M664.145 478.607C664.204 482.313 663.776 486.001 662.887 489.456C661.998 492.912 660.665 496.067 658.965 498.74C657.265 501.414 655.231 503.552 652.982 505.032C650.732 506.513 648.311 507.305 645.858 507.365C635.717 507.365 629.767 494.135 627.57 478.607C623.513 450.181 635.75 449.823 645.858 449.823C650.808 449.978 655.516 453.096 658.945 458.494C662.375 463.892 664.245 471.126 664.145 478.607Z" fill="#263238"/>
<path d="M672.265 490.536C672.265 490.536 669.459 511.274 668.327 514.697C667.614 516.756 666.403 518.321 664.946 519.064L665.149 504.481L672.265 490.536Z" fill="#263238"/>
<path d="M668.732 460.833C668.732 460.833 670.744 460.067 672.89 465.124C674.716 469.44 675.138 479.145 672.265 490.664L666.975 491.634L668.732 460.833Z" fill="#263238"/>
<path d="M670.676 465.047L677.166 465.226C677.211 464.592 677.168 463.951 677.04 463.343C676.913 462.736 676.704 462.174 676.426 461.695C676.148 461.215 675.808 460.827 675.426 460.556C675.045 460.284 674.63 460.135 674.208 460.118C673.321 460.137 672.47 460.651 671.818 461.56C671.166 462.47 670.759 463.712 670.676 465.047Z" fill="#263238"/>
<path d="M671.471 462.723L676.271 455.75C675.994 455.258 675.653 454.857 675.269 454.573C674.884 454.29 674.465 454.13 674.038 454.103C673.611 454.077 673.185 454.185 672.786 454.42C672.388 454.655 672.026 455.012 671.724 455.469C671.088 456.41 670.708 457.678 670.661 459.021C670.614 460.365 670.903 461.686 671.471 462.723Z" fill="#263238"/>
<path d="M666.597 491.198C667.661 492.194 669.166 489.001 670.484 486.83C671.802 484.66 675.893 482.667 678.022 489.716C680.152 496.765 676.518 503.738 673.476 506.037C668.016 510.123 666.292 504.172 666.292 504.172L665.836 537.017C658.163 554.895 640.754 554.333 647.024 536.148V526.162C644.445 526.81 641.825 527.016 639.216 526.775C634.956 525.753 632.286 520.467 630.984 513.213C628.922 501.567 628.128 492.168 629.886 469.259C631.813 444.179 650.371 443.898 660.309 453.935C670.247 463.972 666.597 491.198 666.597 491.198Z" fill="#FFCDEA"/>
<path d="M643.474 465.352C647.903 464.688 652.28 463.308 656.725 462.798C657.684 462.622 658.655 462.691 659.599 463.002C662.979 464.407 662.573 470.383 663.114 474.546C664.044 481.748 664.805 493.931 666.596 493.982C667.137 493.982 669.165 488.695 670.484 486.805C671.208 485.177 671.618 483.275 671.667 481.314C672.005 478.351 672.174 475.312 672.326 472.298C672.461 469.744 672.63 467.19 672.63 464.636C672.707 461.75 672.554 458.86 672.174 456.029C671.75 453.621 670.937 451.409 669.807 449.593L669.469 449.031C667.242 445.512 664.538 442.759 661.542 440.961C657.233 438.521 652.713 437.033 648.122 436.542C643.538 436.052 638.974 435.199 634.449 433.988C634.189 433.874 633.914 433.874 633.654 433.988C633.471 434.142 633.316 434.363 633.204 434.631C633.091 434.898 633.025 435.204 633.012 435.521C632.827 437.108 632.943 438.742 633.346 440.233C633.75 441.725 634.425 443.013 635.294 443.949C632.235 444.307 628.719 441.906 625.778 440.68C625.54 440.527 625.284 440.449 625.026 440.449C624.767 440.449 624.512 440.527 624.274 440.68C623.979 440.992 623.769 441.454 623.682 441.982C623.468 443.182 623.439 444.441 623.598 445.66C623.867 449.357 624.776 452.88 626.234 455.876C628.512 460.358 631.731 463.537 635.361 464.892C638.034 465.671 640.77 465.826 643.474 465.352Z" fill="#263238"/>
<path d="M645.83 526.471C645.83 526.471 655.329 523.457 658.642 520.673C660.615 519.042 662.217 516.55 663.239 513.522C662.74 516.564 661.85 519.428 660.619 521.95C658.202 526.854 645.83 530.429 645.83 530.429V526.471Z" fill="#DFA1ED"/>
<path d="M648.112 487.752C648.093 488.54 648.282 489.308 648.637 489.887C648.991 490.465 649.483 490.809 650.005 490.842C650.419 490.894 650.833 490.755 651.194 490.444C651.555 490.133 651.846 489.665 652.028 489.101C652.209 488.536 652.274 487.902 652.213 487.281C652.153 486.66 651.969 486.081 651.687 485.62C651.405 485.16 651.037 484.838 650.632 484.699C650.227 484.559 649.803 484.608 649.417 484.838C649.03 485.069 648.699 485.47 648.466 485.99C648.233 486.51 648.11 487.124 648.112 487.752Z" fill="#263238"/>
<path d="M651.154 475.365L655.228 478.915C655.524 478.04 655.591 477.028 655.416 476.081C655.24 475.134 654.835 474.322 654.281 473.807C654.011 473.578 653.712 473.437 653.404 473.391C653.096 473.346 652.785 473.399 652.491 473.545C652.196 473.692 651.926 473.929 651.696 474.243C651.466 474.556 651.281 474.938 651.154 475.365Z" fill="#263238"/>
<path d="M646.675 508.465L642.331 511.019C642.418 511.469 642.566 511.887 642.765 512.248C642.964 512.608 643.209 512.903 643.487 513.113C643.764 513.324 644.067 513.447 644.377 513.473C644.687 513.499 644.998 513.429 645.289 513.266C645.88 512.882 646.352 512.171 646.61 511.279C646.867 510.388 646.89 509.381 646.675 508.465Z" fill="#DFA1ED"/>
<path d="M631.846 477.687L635.564 473.192C635.398 472.8 635.178 472.465 634.92 472.209C634.662 471.953 634.372 471.782 634.067 471.708C633.763 471.633 633.451 471.656 633.153 471.775C632.855 471.895 632.576 472.108 632.336 472.4C631.839 473.037 631.515 473.927 631.424 474.902C631.334 475.877 631.484 476.869 631.846 477.687Z" fill="#263238"/>
<path d="M633.486 486.6C633.516 487.159 633.652 487.693 633.879 488.136C634.106 488.58 634.414 488.914 634.764 489.097C635.115 489.281 635.493 489.306 635.853 489.17C636.213 489.034 636.539 488.743 636.791 488.332C637.043 487.92 637.211 487.407 637.273 486.854C637.335 486.302 637.289 485.734 637.141 485.219C636.994 484.705 636.75 484.268 636.44 483.959C636.13 483.651 635.767 483.486 635.396 483.485C635.135 483.498 634.878 483.589 634.64 483.753C634.403 483.917 634.189 484.151 634.011 484.441C633.834 484.73 633.696 485.07 633.606 485.441C633.515 485.812 633.475 486.206 633.486 486.6Z" fill="#263238"/>
<path d="M643.678 484.2L643.458 502.359L636.63 500.009L643.678 484.2Z" fill="#DFA1ED"/>
<path d="M481.521 636.291L492.118 627.045L496.31 619.358L485.729 628.603L481.521 636.291Z" fill="#FF2CDF"/>
<path opacity="0.4" d="M481.521 636.291L492.118 627.045L496.31 619.358L485.729 628.603L481.521 636.291Z" fill="black"/>
<path d="M510.339 661.422L520.936 652.177L529.776 640.352L519.195 649.572L510.339 661.422Z" fill="#FF2CDF"/>
<path opacity="0.4" d="M510.339 661.422L520.936 652.177L529.776 640.352L519.195 649.572L510.339 661.422Z" fill="black"/>
<path d="M600.357 693.321C602.863 698.397 604.38 704.43 604.735 710.74C602.24 705.655 600.725 699.626 600.357 693.321ZM624.984 693.806C621.417 657.157 608.386 620.915 592.87 607.354C585.416 600.841 578.52 600.611 572.993 605.489L563.021 614.173L562.463 614.684C562.019 615.053 561.59 615.462 561.179 615.91C560.36 616.761 559.591 617.718 558.88 618.77L558.542 619.255C558.238 619.715 557.917 620.251 557.63 620.762C557.342 621.273 556.903 622.065 556.565 622.754C555.847 624.181 555.198 625.683 554.621 627.249C554.317 628.041 554.029 628.884 553.759 629.803L466.664 553.847L456.083 563.067V573.283L456.979 574.049L457.824 574.79V576.833L456.134 578.34V584.265L468.928 625.129L481.571 636.188L485.78 628.526L496.935 638.615L503.341 655.19L510.406 661.345L519.245 649.495L530.096 658.97L533.747 681.726L551.984 697.663C552.886 703.455 554.014 709.16 555.365 714.749C555.483 715.311 555.635 715.899 555.787 716.537C561.838 740.545 571.455 761.104 582.306 770.58C583.607 771.745 584.969 772.745 586.38 773.568C587.125 774.016 587.887 774.4 588.661 774.717C589.337 774.99 590.014 775.22 590.69 775.407C592.824 775.995 595.012 775.995 597.146 775.407L598.025 775.075C598.445 774.947 598.858 774.767 599.259 774.538L600.205 773.977C600.54 773.794 600.863 773.563 601.169 773.287C601.481 773.083 601.786 772.853 602.082 772.597L602.521 772.189C602.601 772.149 602.675 772.089 602.741 772.01C605.158 769.916 611.107 764.706 612.73 763.326C620.775 756.277 625.981 738.45 625.981 713.242C625.967 706.735 625.634 700.239 624.984 693.806Z" fill="#FF2CDF"/>
<path d="M597.265 724.251C593.073 720.598 589.693 709.769 589.693 700.064C589.693 690.359 593.073 685.43 597.265 689.056C601.456 692.683 604.82 703.538 604.82 713.268C604.82 722.999 601.44 727.903 597.265 724.251ZM614.386 703.027C610.837 666.402 597.806 630.136 582.273 616.599C575.073 610.317 568.413 609.857 563.005 614.173L562.447 614.684C562.003 615.053 561.574 615.463 561.162 615.91C560.343 616.762 559.574 617.719 558.864 618.77L558.526 619.256C558.221 619.715 557.9 620.252 557.613 620.762C557.326 621.273 556.886 622.065 556.548 622.755C555.831 624.182 555.181 625.684 554.604 627.25C554.3 628.041 554.013 628.884 553.742 629.804C552.167 634.74 551.03 639.97 550.362 645.357L456.066 563.068V573.284L456.962 574.05L457.807 574.79V576.834L456.117 578.34V584.266L468.912 625.13L481.554 636.189L485.763 628.527L496.918 638.615L503.324 655.19L510.389 661.345L519.229 649.495L530.08 658.97L533.731 681.726L551.985 697.663C552.886 703.455 554.015 709.161 555.365 714.75C555.483 715.312 555.635 715.899 555.788 716.537C561.838 740.545 571.456 761.105 582.307 770.58C583.607 771.745 584.97 772.745 586.38 773.568C587.126 774.016 587.887 774.4 588.662 774.718C589.338 774.99 590.014 775.22 590.69 775.407C592.825 775.995 595.012 775.995 597.146 775.407L598.025 775.075C598.446 774.947 598.858 774.768 599.259 774.539L600.206 773.977C600.541 773.794 600.863 773.563 601.169 773.287C601.482 773.083 601.786 772.853 602.082 772.598L602.521 772.189C602.601 772.15 602.675 772.089 602.741 772.01C610.448 764.655 615.4 747.083 615.4 722.488C615.372 715.973 615.033 709.469 614.386 703.027Z" fill="#FF2CDF"/>
<path opacity="0.4" d="M604.82 713.242C604.82 722.973 601.439 727.902 597.264 724.25C593.09 720.598 589.692 709.795 589.692 700.064C589.692 690.333 593.073 685.404 597.264 689.056C598.472 690.166 599.522 691.624 600.357 693.347C600.721 699.654 602.236 705.684 604.735 710.765C604.797 711.587 604.825 712.415 604.82 713.242Z" fill="black"/>
<path opacity="0.4" d="M625.948 713.217C625.948 738.425 620.742 756.252 612.696 763.301C611.006 764.68 605.124 769.891 602.707 771.985C610.415 764.629 615.367 747.058 615.367 722.463C615.349 715.957 615.021 709.462 614.387 703.027C610.837 666.403 597.806 630.136 582.273 616.6C575.073 610.317 568.413 609.857 563.005 614.173L572.977 605.49C578.504 600.612 585.4 600.841 592.854 607.354C608.386 620.916 621.418 657.157 624.967 693.807C625.611 700.232 625.939 706.72 625.948 713.217Z" fill="white"/>
<path d="M615.367 722.411C615.367 747.006 610.414 764.578 602.707 771.933C605.124 769.839 611.073 764.629 612.696 763.25C620.741 756.201 625.947 738.374 625.947 713.166C625.947 712.246 625.947 711.301 625.947 710.356L615.367 719.602C615.35 720.598 615.367 721.517 615.367 722.411Z" fill="#FF2CDF"/>
<path opacity="0.1" d="M615.367 722.411C615.367 747.006 610.414 764.578 602.707 771.933C605.124 769.839 611.073 764.629 612.696 763.25C620.741 756.201 625.947 738.374 625.947 713.166C625.947 712.246 625.947 711.301 625.947 710.356L615.367 719.602C615.35 720.598 615.367 721.517 615.367 722.411Z" fill="black"/>
<path opacity="0.15" d="M550.767 655.803V660.988L456.083 578.391L457.824 576.859V574.713L550.767 655.803Z" fill="black"/>
<path opacity="0.15" d="M550.767 657.949V660.988L456.083 578.392L457.824 576.859V576.834L550.767 657.949Z" fill="black"/>
<path opacity="0.15" d="M591.941 763.276C588.353 763.135 584.853 761.557 581.8 758.704C566.369 745.244 553.811 705.198 553.811 669.442C553.811 648.575 557.985 632.996 565.27 626.637C570.341 622.193 576.341 622.755 582.645 628.246C598.06 641.705 610.618 681.88 610.618 717.636C610.618 738.476 606.443 754.081 599.158 760.415C596.961 762.311 594.472 763.298 591.941 763.276ZM572.589 626.254C570.336 626.235 568.12 627.116 566.166 628.808C559.523 634.605 555.551 649.801 555.551 669.416C555.551 704.355 567.721 743.482 582.696 756.456C588.426 761.564 593.851 762.024 598.364 758.091C605.006 752.293 608.978 737.123 608.978 717.508C608.978 682.544 596.809 643.442 581.851 630.442C579.055 627.872 575.86 626.462 572.589 626.356V626.254Z" fill="black"/>
<path opacity="0.4" d="M553.675 629.752C552.099 634.689 550.963 639.919 550.295 645.306L455.999 563.016L466.58 553.797L553.675 629.752Z" fill="white"/>
<path d="M676.23 637.746C681.165 623.623 686.811 591.902 689.616 575.889C693.605 553.158 687.149 538.856 679.813 538.268C675.233 539.341 660.139 622.269 660.139 622.269C658.449 624.287 635.513 641.884 628.144 646.302C626.826 647.056 625.372 647.056 624.054 646.302C620.521 644.361 618.104 644.719 614.64 644.208C611.918 643.799 610.549 642.344 610.194 643.212C609.872 644.29 609.83 645.511 610.078 646.633C610.325 647.755 610.844 648.695 611.53 649.265C613.022 650.578 614.61 651.624 616.262 652.381C613.3 653.739 610.213 654.368 607.118 654.245C600.019 654.015 597.467 658.664 602.977 669.569C606.358 676.363 611.952 678.508 624.443 671.996C628.026 670.106 632.894 666.453 637.44 663.976C646.804 658.868 649.272 658.255 656.404 654.603C666.799 649.291 674.033 644.029 676.23 637.746Z" fill="#FFCDEA"/>
<path d="M675.848 536.431C680.158 537.325 684.299 538.781 686.851 544.093C689.403 549.405 691.448 556.863 688.947 577.167C687.031 591.447 684.467 605.51 681.273 619.257C681.273 619.257 671.233 625.745 660.568 609.297L667.904 566.441C667.904 566.441 669.087 538.577 675.848 536.431Z" fill="#455A64"/>
</g>
<defs>
<clipPath id="clip0_1_915">
<rect width="845.094" height="1277" fill="white" transform="translate(0 -49)"/>
</clipPath>
</defs>
</svg>
